<?xml version="1.0" standalone="no"?>
<!DOCTYPE svg PUBLIC "-//W3C//DTD SVG 20010904//EN"
 "http://www.w3.org/TR/2001/REC-SVG-20010904/DTD/svg10.dtd">
<svg version="1.0" xmlns="http://www.w3.org/2000/svg"
 width="500.000000pt" height="500.000000pt" viewBox="0 0 500.000000 500.000000"
 preserveAspectRatio="xMidYMid meet">
<metadata>
Created by potrace 1.14, written by Peter Selinger 2001-2017
</metadata>
<g transform="translate(0.000000,500.000000) scale(0.100000,-0.100000)"
fill="#000000" stroke="none">
<path d="M2340 4997 c-3 -3 -43 -8 -89 -12 -205 -15 -538 -98 -715 -177 -335
-151 -562 -304 -802 -543 -197 -196 -331 -381 -456 -625 -41 -80 -82 -165 -92
-190 -80 -201 -139 -436 -171 -675 -13 -105 -17 -342 -6 -467 40 -479 193
-891 474 -1283 126 -174 343 -396 507 -516 182 -134 339 -225 540 -312 227
-98 484 -161 760 -187 181 -16 518 -3 620 25 8 3 33 7 55 10 22 4 58 11 80 17
22 6 47 12 55 14 8 1 24 5 35 8 11 3 40 10 65 16 109 26 288 99 455 185 140
72 158 83 285 174 391 279 686 647 872 1090 72 173 137 413 164 610 3 25 8 57
11 71 9 48 12 416 3 490 -22 199 -61 388 -118 575 -41 133 -210 483 -273 564
-11 14 -47 63 -79 109 -130 184 -335 393 -514 526 -192 141 -453 285 -648 355
-146 53 -369 106 -573 136 -56 8 -439 19 -445 12z"/>
</g>
</svg>
